<?xml version="1.0" encoding="UTF-8"?><svg id="Layer_2" xmlns="http://www.w3.org/2000/svg" viewBox="0 0 165 39">
    <defs>
        <style>
            .cls-1 {
                clip-path: url(#clippath);
            }
            .cls-2 {
                fill: none;
            }
            .cls-2,
            .cls-3 {
                stroke-width: 0px;
            }
        </style>
        <clipPath id="clippath">
            <rect class="cls-2" width="165" height="39" />
        </clipPath>
    </defs>
    <g id="Layer_1-2">
        <g class="cls-1">
            <g id="logo">
                <g id="Group">
                    <path id="Vector" class="cls-3" d="m75,30.9l-9.6-25.6h4l7.8,21.8,7.9-21.8h3.9l-9.6,25.6h-4.4Z" />
                    <path id="Vector_2" class="cls-3"
                          d="m96.8,31.4c-1.8,0-3.3-.4-4.7-1.2-1.4-.8-2.5-1.9-3.2-3.4-.8-1.4-1.2-3.1-1.2-5s.4-3.7,1.2-5.1c.8-1.5,1.9-2.6,3.2-3.4,1.4-.8,3-1.2,4.8-1.2s3.4.4,4.7,1.2c1.3.8,2.3,1.9,3,3.2.7,1.3,1.1,2.8,1.1,4.4v.8c0,.3,0,.6-.1.9h-15.2v-2.6h11.6c-.1-1.5-.6-2.7-1.5-3.6-1-.9-2.2-1.3-3.6-1.3-1,0-1.9.2-2.8.7-.8.5-1.5,1.1-2,2s-.8,2-.8,3.3v1c0,1.4.3,2.5.8,3.5.5.9,1.2,1.6,2,2.1s1.7.7,2.7.7c1.2,0,2.2-.3,2.9-.8.8-.5,1.3-1.2,1.7-2.1h3.7c-.3,1.1-.9,2.1-1.6,3-.8.9-1.7,1.6-2.8,2.1-1.2.5-2.4.8-3.9.8h0Z" />
                    <path id="Vector_3" class="cls-3"
                          d="m116,31.4c-1.6,0-3-.3-4.1-.8-1.2-.5-2.1-1.2-2.8-2.2-.7-.9-1.1-2-1.3-3.3h3.8c.1.6.4,1.1.7,1.6s.8.9,1.5,1.2c.6.3,1.4.4,2.2.4s1.5-.1,2-.3c.5-.2.9-.5,1.2-1,.2-.4.4-.8.4-1.3,0-.7-.2-1.2-.5-1.6s-.8-.6-1.5-.8c-.7-.2-1.4-.4-2.3-.6-.9-.1-1.7-.3-2.5-.6-.8-.3-1.5-.6-2.1-1s-1.1-.9-1.5-1.5-.6-1.3-.6-2.2c0-1,.3-2,.8-2.8.6-.8,1.4-1.5,2.4-2s2.3-.7,3.7-.7c2.1,0,3.7.5,5,1.5s2,2.4,2.2,4.1h-3.6c-.1-.8-.5-1.5-1.1-1.9-.6-.5-1.5-.7-2.5-.7-1.1,0-1.9.2-2.4.6-.6.4-.8,1-.8,1.6,0,.4.2.8.5,1.2.3.3.8.6,1.4.9.6.2,1.4.4,2.3.6,1.3.2,2.5.5,3.5.9s1.9.9,2.5,1.6.9,1.7.9,3c0,1.1-.3,2.2-.9,3-.6.9-1.5,1.6-2.5,2.1-1.2.7-2.5,1-4,1Z" />
                    <path id="Vector_4" class="cls-3"
                          d="m126.7,39V12.5h3.3l.4,2.9c.4-.6.9-1.1,1.5-1.6s1.3-.9,2.1-1.2,1.8-.5,2.9-.5c1.8,0,3.3.4,4.7,1.3,1.3.9,2.4,2,3.1,3.5.8,1.5,1.1,3.1,1.1,5s-.4,3.5-1.1,5c-.8,1.5-1.8,2.6-3.2,3.4-1.3.8-2.9,1.2-4.7,1.2-1.5,0-2.7-.3-3.8-.9s-2-1.4-2.6-2.4v10.9h-3.7v-.1Zm9.6-10.8c1.1,0,2.1-.3,3-.8s1.6-1.3,2.1-2.3.8-2.1.8-3.4-.3-2.4-.8-3.4-1.2-1.7-2.1-2.3c-.9-.5-1.9-.8-3-.8s-2.2.3-3,.8c-.9.5-1.6,1.3-2,2.3-.5,1-.7,2.1-.7,3.4s.2,2.4.7,3.4,1.2,1.7,2,2.3c.8.5,1.8.8,3,.8Z" />
                    <path id="Vector_5" class="cls-3"
                          d="m155.3,31.4c-1.5,0-2.8-.3-3.8-.8s-1.8-1.2-2.3-2.1-.7-1.8-.7-2.8c0-1.2.3-2.3,1-3.1.6-.9,1.6-1.5,2.7-2,1.2-.5,2.6-.7,4.2-.7h4.8c0-1.1-.2-2-.5-2.7s-.8-1.2-1.4-1.6c-.6-.4-1.4-.5-2.4-.5-1.1,0-2.1.3-2.8.8-.8.5-1.3,1.3-1.5,2.3h-3.6c.1-1.3.6-2.4,1.3-3.3.8-.9,1.7-1.6,2.9-2.1,1.2-.5,2.4-.8,3.8-.8,1.7,0,3.2.3,4.4.9s2.1,1.5,2.7,2.6c.6,1.1.9,2.4.9,4v11.4h-3.2l-.3-3.1c-.3.5-.6,1-1,1.4s-.8.8-1.3,1.1c-.5.3-1.1.6-1.7.8-.7.2-1.4.3-2.2.3h0Zm.7-3c.8,0,1.5-.2,2.1-.5s1.2-.8,1.6-1.3c.5-.5.8-1.2,1-1.9.2-.7.4-1.4.4-2.1v-.1h-4.4c-1.1,0-1.9.1-2.6.4-.7.3-1.1.6-1.4,1-.3.4-.4,1-.4,1.5,0,.6.1,1.1.4,1.6.3.4.7.8,1.2,1,.7.3,1.4.4,2.1.4h0Z" />
                </g>
                <g id="Group_2">
                    <path id="Vector_6" class="cls-3" d="m10.6,25.6h33.4l-10.6,10.6H0v-15.1l10.6-10.6v15.1Z" />
                    <path id="Vector_7" class="cls-3" d="m54.7,0v15.1l-10.7,10.5v-15.1H10.6L21.3,0h33.4Z" />
                </g>
            </g>
        </g>
    </g>
</svg>